<svg width="209" height="211" viewBox="0 0 209 211" fill="none" xmlns="http://www.w3.org/2000/svg">
<path fill-rule="evenodd" clip-rule="evenodd" d="M45.8737 29.1945C44.3444 25.9779 43.6943 22.364 44.9102 18.8354C48.4136 8.66861 62.2266 14.8128 63.631 20.7943C65.0354 26.7757 61.1476 39.9518 57.271 39.9148C55.725 39.9001 52.8891 38.1616 50.2601 35.4317L48.4975 49.8818L36.8773 46.7682L45.8737 29.1945Z" fill="#D4A181"/>
<path fill-rule="evenodd" clip-rule="evenodd" d="M50.0907 29.5437C47.9086 31.9235 45.3576 33.4724 43.3665 32.9389C39.5848 31.9256 38.2506 26.149 39.7073 20.7128C39.7584 20.5218 39.8131 20.3331 39.871 20.1468C35.135 21.8201 30.602 26.4051 25.3088 24.9868C18.1074 23.0571 19.1395 7.76555 29.2008 10.4615C36.0433 12.2949 39.1418 14.1944 41.6471 16.4469C42.6514 14.9874 43.8871 13.8651 45.2076 13.204C45.5416 12.9839 46.0091 12.8129 46.5853 12.6927C46.9411 12.606 47.2993 12.5538 47.6572 12.5382C49.5788 12.3641 52.2341 12.5896 55.0909 13.2491C55.6243 13.3723 56.1448 13.5059 56.6494 13.6484C57.3723 10.9836 60.1154 9.40415 62.7844 10.1193C65.4584 10.8358 67.0453 13.5844 66.3288 16.2584C65.6359 18.8444 63.0424 20.4137 60.4539 19.8661C58.8732 19.9254 56.9089 19.7535 54.7914 19.3356C54.7898 20.1492 54.6684 21.0415 54.4071 22.0165C54.1765 22.8774 53.8368 23.765 53.4134 24.6452C53.1059 23.9881 52.5964 23.4765 51.9841 23.3124C50.2713 22.8535 48.7015 23.9431 48.3007 25.4391C47.7919 27.3378 48.52 29.0051 50.0907 29.5437Z" fill="#131313"/>
<path fill-rule="evenodd" clip-rule="evenodd" d="M22.0552 91.0801L40.4166 154.352L49.0529 201.858H57.7211L49.0683 91.0801H22.0552Z" fill="#BA8B72"/>
<path fill-rule="evenodd" clip-rule="evenodd" d="M13.8034 91.0801C15.0846 123.95 14.5793 141.877 14.2926 144.864C14.0058 147.85 12.3779 167.851 1.28503 202.86H10.3008C24.9915 169.274 30.1199 149.274 31.8048 144.864C33.4897 140.454 38.466 122.526 45.7312 91.0801H13.8034Z" fill="#D4A181"/>
<path fill-rule="evenodd" clip-rule="evenodd" d="M21.6611 91.0801C26.4372 112.852 34.6978 147.606 46.4429 195.341H59.1212C60.0576 146.345 56.0741 114.098 49.1755 91.0801H21.6611Z" fill="#ADADAD"/>
<path fill-rule="evenodd" clip-rule="evenodd" d="M13.7394 91.0801C14.9941 123.95 11.7423 156.332 1.66943 195.853H15.1965C29.9142 162.769 40.4629 130.546 47.6722 91.0801H13.7394Z" fill="#9CA4A5"/>
<path fill-rule="evenodd" clip-rule="evenodd" d="M0 209.376L0.497457 201.356C3.41 202.208 7.05802 201.874 11.4415 200.354C16.1548 203.692 22.0883 205.972 29.2419 207.193C29.7877 207.286 30.1546 207.804 30.0614 208.35C30.0554 208.385 30.0475 208.42 30.0377 208.454L29.35 210.88H11.4415H0.994915L0 209.376Z" fill="#473A18"/>
<path fill-rule="evenodd" clip-rule="evenodd" d="M47.118 209.376L47.6155 201.356C50.528 202.208 54.1761 201.874 58.5596 200.354C63.2729 203.692 69.2063 205.972 76.3599 207.193C76.9057 207.286 77.2726 207.804 77.1795 208.35C77.1735 208.385 77.1655 208.42 77.1558 208.454L76.468 210.88H58.5596H48.113L47.118 209.376Z" fill="#473A18"/>
<path fill-rule="evenodd" clip-rule="evenodd" d="M57.9207 62.9012L76.7096 56.5381C80.1555 53.657 83.4262 51.5242 86.5217 50.1398C87.4289 49.936 88.9443 49.983 87.1298 52.1922C85.3154 54.4013 83.5062 56.8066 84.077 57.6864C84.6478 58.5663 86.5896 57.8202 87.2081 59.2238C87.6205 60.1596 84.388 60.953 77.5107 61.6041L63.0506 70.8081L57.9207 62.9012ZM83.3598 75.5508L91.6152 72.7434C93.3798 68.9112 94.9986 67.112 96.4718 67.3458C97.6926 67.0198 94.8324 71.7509 97.0489 71.6877C99.2654 71.6245 105.17 68.6625 105.931 69.6094C107.056 71.0102 105.238 74.382 103.526 75.9169C100.326 78.7855 97.9615 79.5426 92.3514 80.0907C89.4182 80.3773 86.1199 81.4068 82.4567 83.1793L83.3598 75.5508Z" fill="#D4A181"/>
<path fill-rule="evenodd" clip-rule="evenodd" d="M49.9448 59.3393C55.9575 60.3341 64.184 60.4777 73.679 56.563L75.7139 64.633C68.793 69.4399 59.664 72.7823 52.4581 71.302C46.7795 70.1355 45.08 62.7182 49.9448 59.3393Z" fill="#004440"/>
<path fill-rule="evenodd" clip-rule="evenodd" d="M55.9111 72.7578C62.0022 75.4702 73.0169 75.4803 88.9552 72.7881C91.3181 81.1399 92.0703 86.9297 91.2118 90.1575C77.1613 94.6094 65.6062 95.6614 56.4867 94.2573C55.8249 99.6987 54.2644 104.712 51.2339 109.01C45.0038 117.846 20.0442 104.245 10.8133 104.428C8.42576 85.2992 20.528 79.8304 22.5837 68.2227C24.835 55.5109 38.4938 37.7419 39.9957 38.0068L53.6926 40.4219C52.7364 50.2646 54.6534 61.6359 55.9111 72.7578Z" fill="#077E77"/>
<path fill-rule="evenodd" clip-rule="evenodd" d="M164.355 69.9283C166.57 67.3287 168.069 64.1428 167.818 60.5729C167.097 50.287 152.778 52.5498 149.993 57.7412C147.208 62.9326 147.539 76.1011 151.139 77.029C152.574 77.399 155.632 76.4926 158.745 74.6166L156.791 88.4377H168.326L164.355 69.9283Z" fill="#84530A"/>
<path fill-rule="evenodd" clip-rule="evenodd" d="M144.883 50.5445C145.122 49.7048 145.764 48.9859 146.63 48.7726C146.84 48.7209 147.057 48.7 147.273 48.7087C147.35 48.7118 147.372 48.7342 147.408 48.68C147.435 48.6398 147.436 48.5416 147.447 48.4944C147.481 48.3476 147.524 48.2025 147.577 48.0613C147.759 47.5795 148.063 47.1532 148.43 46.794C149.117 46.122 150.044 45.6583 151.008 45.5744C151.535 45.5285 152.059 45.6142 152.558 45.7858C152.816 45.8746 153.066 45.9852 153.31 46.1075C153.383 46.1443 153.622 46.3246 153.695 46.3129C153.777 46.3 153.94 46.0978 154.006 46.047C154.824 45.4196 155.834 45.173 156.853 45.1803C158.002 45.189 159.109 45.2464 160.068 45.9473C160.271 46.0957 160.464 46.2581 160.648 46.4292C160.745 46.5192 160.839 46.6127 160.929 46.71C160.983 46.7687 161.035 46.8287 161.086 46.8904C161.172 46.995 161.158 47.0294 161.278 46.9564C161.74 46.676 162.275 46.5449 162.813 46.6111C163.133 46.6504 163.444 46.7464 163.74 46.8728C163.84 46.9159 164.073 47.0875 164.18 47.0891C164.287 47.0908 164.516 46.9317 164.626 46.8913C165.218 46.6728 165.856 46.619 166.478 46.7199C167.119 46.8241 167.75 47.0801 168.293 47.4338C168.555 47.604 168.783 47.7925 168.966 48.0455C169.045 48.1548 169.117 48.2703 169.206 48.3716C169.259 48.4309 169.363 48.4918 169.391 48.5668C169.374 48.5219 170.093 48.2449 170.16 48.2272C170.522 48.1328 170.889 48.1519 171.243 48.2684C171.908 48.4873 172.48 48.9781 172.951 49.4814C173.192 49.74 173.403 50.0257 173.583 50.3301C173.669 50.476 173.747 50.626 173.819 50.7792C173.854 50.8534 173.877 50.9462 173.923 51.013C173.982 51.0992 174.022 51.1008 174.129 51.1384C174.674 51.3291 175.17 51.6519 175.548 52.0881C175.93 52.5294 176.178 53.0728 176.282 53.6451C176.288 53.6788 176.292 53.8186 176.311 53.8368C176.339 53.8619 176.448 53.8508 176.489 53.8557C176.633 53.8725 176.775 53.8975 176.916 53.9308C177.175 53.9921 177.427 54.0823 177.665 54.2003C178.595 54.6602 179.26 55.5225 179.585 56.4927C179.926 57.5109 179.92 58.6774 179.512 59.6766C179.446 59.838 179.368 59.9947 179.276 60.1429C179.219 60.2338 179.201 60.2341 179.238 60.3295C179.279 60.4357 179.353 60.5389 179.402 60.6426C179.561 60.9812 179.671 61.3403 179.741 61.7071C179.856 62.3088 179.913 62.941 179.8 63.5472C179.747 63.8287 179.656 64.1039 179.516 64.3546C179.444 64.4825 179.361 64.6037 179.267 64.7159C179.218 64.7741 179.166 64.8297 179.112 64.883C179.08 64.9134 179.04 64.9401 179.013 64.9741C178.949 65.0569 178.935 64.9888 178.968 65.1105C179.015 65.2807 179.12 65.4486 179.185 65.6142C179.252 65.7848 179.312 65.9578 179.367 66.1324C179.478 66.4862 179.572 66.8463 179.631 67.2126C179.744 67.9159 179.724 68.6652 179.392 69.3107C179.25 69.5868 179.045 69.829 178.798 70.0174C178.677 70.1096 178.546 70.189 178.408 70.2542C178.337 70.2878 178.247 70.3022 178.215 70.3706C178.18 70.4442 178.232 70.5902 178.243 70.6724C178.346 71.3878 178.397 72.1388 178.184 72.8398C177.988 73.4854 177.557 74.0555 176.997 74.4329C175.911 75.165 174.447 75.1238 173.306 74.5376C173.009 74.3848 172.73 74.1951 172.482 73.9714C171.85 74.8223 170.549 74.7954 169.625 74.5529C168.474 74.2509 167.551 73.4505 167.018 72.3989C166.291 73.2847 164.764 72.9973 164.259 72.0363C164.136 71.8012 164.062 71.542 164.026 71.2797C164.007 71.1417 164.019 71.0026 164.005 70.8657C163.987 70.6914 163.871 70.5219 163.804 70.3533C163.673 70.025 163.592 69.6859 163.589 69.3318C163.587 69.1469 163.61 68.9668 163.628 68.7834C163.644 68.6183 163.598 68.4645 163.572 68.3015C163.867 68.3502 164.227 68.2706 164.505 68.1849C164.778 68.101 165.034 67.8797 165.226 67.6777C165.674 67.2085 165.947 66.5935 166.134 65.9813C166.544 64.6378 166.376 63.0259 165.024 62.2886C164.395 61.9451 162.509 61.9462 161.759 62.116C160.971 62.2945 160.077 64.034 160.033 64.1975C160.006 64.2987 160.02 64.424 159.927 64.4914C159.722 64.6397 159.385 64.3824 159.235 64.2554C158.975 64.0362 158.789 63.7447 158.628 63.4491C158.278 62.8052 157.996 62.1146 157.797 61.4097C157.643 60.8662 157.545 60.3058 157.344 59.7762C157.144 59.2492 156.829 58.7781 156.339 58.4796C155.806 58.1548 155.196 57.9838 154.611 57.7797C154.031 57.5774 153.461 57.3302 153.011 56.901C152.912 56.8067 152.816 56.7064 152.737 56.5953C152.674 56.5076 152.612 56.3396 152.516 56.284C152.368 56.1975 152.15 56.4225 152.022 56.5042C151.387 56.9073 150.858 57.4694 150.431 58.0835C150.006 58.6943 149.657 59.282 149.374 59.964C149.164 60.4698 149.033 61.1176 148.664 61.5322C148.499 61.7173 147.273 61.8292 146.876 61.6676C146.479 61.5061 146.034 61.0865 145.901 60.8235C145.764 60.5543 145.731 60.2587 145.79 59.964C145.824 59.7907 145.894 59.6287 145.932 59.4585C145.965 59.3155 145.994 59.1803 146.064 59.0493C146.195 58.801 146.421 58.6225 146.693 58.5479C146.41 58.2871 146.175 57.9751 146.013 57.6263C145.845 57.2639 145.702 56.8232 145.661 56.4255C145.628 56.1025 145.679 55.7678 145.856 55.4902C146.042 55.199 146.37 55.009 146.655 54.8274C146.22 54.4875 145.848 54.0743 145.543 53.6167C144.949 52.7269 144.581 51.6053 144.883 50.5445Z" fill="black"/>
<path fill-rule="evenodd" clip-rule="evenodd" d="M200.529 148.518H145.256C141.008 148.518 137.565 151.961 137.565 156.208V200.427C137.565 204.674 141.008 208.117 145.256 208.117H200.529C204.776 208.117 208.219 204.674 208.219 200.427V156.208C208.219 151.961 204.776 148.518 200.529 148.518ZM192.839 161.975C193.901 161.975 194.761 162.836 194.761 163.898V192.736C194.761 193.798 193.901 194.659 192.839 194.659H152.946C151.884 194.659 151.023 193.798 151.023 192.736V163.898C151.023 162.836 151.884 161.975 152.946 161.975H192.839Z" fill="#C5CFD6"/>
<path fill-rule="evenodd" clip-rule="evenodd" d="M103.195 206.511C109.354 192.881 113.807 181.013 115.595 174.751C118.656 164.029 120.984 154.594 121.573 151.071C122.976 142.669 110.777 142.18 109.164 146.355C106.724 152.675 102.463 173.44 97.3433 204.804L103.195 206.511ZM174.628 163.736C168.978 161.503 149.191 154.513 139.648 152.536C136.906 151.968 134.248 151.44 131.749 150.963C124.321 149.545 120.473 162.945 127.626 163.975C145.442 166.539 170.699 169.186 172.861 169.484C175.89 169.9 178.179 165.14 174.628 163.736Z" fill="#84530A"/>
<path fill-rule="evenodd" clip-rule="evenodd" d="M127.19 147.276L157.752 131.717V128.331H154.118C124.55 135.865 109.441 140.693 108.79 142.816C108.783 142.839 108.777 142.862 108.771 142.885C108.756 142.904 108.741 142.924 108.727 142.944C102.867 151.002 99.358 190.346 98.2062 193.292L109.435 194.967C113.73 179.039 127.472 167.944 127.107 148.868C127.206 148.308 127.23 147.778 127.19 147.276Z" fill="#077E77"/>
<path fill-rule="evenodd" clip-rule="evenodd" d="M155.213 156.515C158.009 155.956 160.584 155.456 162.788 155.07C177.021 152.573 181.172 144.954 178.718 128.331H152.493C148.209 129.561 125.946 138.897 114.395 143.863C106.75 147.15 109.16 158.997 113.49 162.081C113.513 162.27 113.591 162.398 113.73 162.456C137.019 172.108 155.443 167.044 161.597 168.662L164.444 159.682L155.213 156.515Z" fill="#05A298"/>
<path fill-rule="evenodd" clip-rule="evenodd" d="M172.696 162.309C174.222 162.455 175.305 162.684 175.946 162.996C176.725 163.376 177.798 164.06 179.166 165.049C178.726 165.952 174.764 174.074 167.283 189.414C164.881 189.026 163.929 188.11 164.427 186.664C164.926 185.218 165.328 184.012 165.633 183.044L166.108 169.257C166.117 168.991 166.34 168.784 166.605 168.793C166.609 168.793 166.614 168.793 166.619 168.793L168.739 168.927C169.945 167.951 170.74 167.069 171.125 166.279C171.438 165.638 171.611 164.625 171.644 163.242C171.657 162.712 172.097 162.292 172.628 162.304C172.651 162.305 172.674 162.306 172.696 162.309Z" fill="#553004"/>
<path fill-rule="evenodd" clip-rule="evenodd" d="M105.998 203.984C106.536 205.419 106.805 206.493 106.805 207.206C106.805 208.073 106.66 209.337 106.371 211C105.366 211 96.3296 211 79.2625 211C78.5581 208.671 78.9647 207.414 80.4825 207.228C82.0003 207.043 83.2611 206.875 84.265 206.725L96.865 201.108C97.1074 201 97.3916 201.109 97.4997 201.351C97.5015 201.356 97.5033 201.36 97.505 201.364L98.315 203.329C99.72 203.984 100.862 204.312 101.74 204.312C102.454 204.312 103.44 204.024 104.697 203.447C105.18 203.226 105.75 203.438 105.972 203.92C105.981 203.941 105.99 203.962 105.998 203.984Z" fill="#553004"/>
<path fill-rule="evenodd" clip-rule="evenodd" d="M129.854 120.699L116.238 133.982C112.277 135.672 109.031 137.537 106.5 139.579C105.931 140.266 105.312 141.581 107.989 140.992C110.667 140.404 113.509 139.905 114.012 140.776C114.515 141.647 113.033 142.981 113.963 144.12C114.583 144.88 116.668 142.464 120.218 136.871L134.376 128.524L129.854 120.699ZM190.288 122.572L180.244 122.612C186.445 142.632 189.793 153.255 190.288 154.48C191.4 157.236 189.046 161.434 188.04 163.69C191.318 165.157 190.969 159.724 195.104 161.648C198.878 163.404 201.749 166.586 206.11 163.895C206.646 163.564 207.233 162.319 205.814 161.345C202.277 158.921 197.181 154.677 196.493 153.28C195.554 151.375 193.485 141.139 190.288 122.572Z" fill="#84530A"/>
<path fill-rule="evenodd" clip-rule="evenodd" d="M161.744 80.4267L157.588 79.7138C150.432 97.5889 137.94 113.831 120.109 128.439L133.583 144.808C151.411 124.007 162.4 102.547 161.744 80.4267Z" fill="#002523"/>
<path fill-rule="evenodd" clip-rule="evenodd" d="M179.862 132.657H142.852C151.427 111.809 155.714 94.0991 155.714 79.5271L166.878 77.8638C175.651 91.9745 178.129 109.348 179.862 132.657Z" fill="#DDE3E9"/>
<path fill-rule="evenodd" clip-rule="evenodd" d="M167.114 77.8717C167.112 77.869 167.111 77.8664 167.11 77.8638H166.381C165.509 77.8938 164.181 77.9479 162.396 78.0261L159.699 85.7351C159.413 95.1343 157.747 114.076 154.7 142.561H178.96C178.896 144.528 178.791 146.514 178.645 148.518H196.684C193.986 118.076 184.132 94.5246 167.123 77.8638L167.114 77.8717Z" fill="#08716B"/>
<path fill-rule="evenodd" clip-rule="evenodd" d="M177.357 117.388C176.667 129.652 174.938 138.105 172.171 142.75H178.954C179.251 133.927 178.719 125.473 177.357 117.388Z" fill="black" fill-opacity="0.1"/>
<path fill-rule="evenodd" clip-rule="evenodd" d="M173.56 127.85L161.597 122.289V127.85H173.56Z" fill="white" fill-opacity="0.2"/>
</svg>
