<svg width="20" height="20" viewBox="0 0 20 20" fill="none" xmlns="http://www.w3.org/2000/svg">
<circle cx="10" cy="10" r="10" fill="#088A82"/>
<path d="M10.1912 10.2017H10.1943M11.7051 10.2017H11.7085M8.677 10.2017H8.68041" stroke="white" stroke-width="0.74" stroke-linecap="round" stroke-linejoin="round"/>
<path d="M6.40002 10.2014C6.40002 9.90962 6.40495 9.62428 6.41518 9.34879C6.44663 8.44959 6.46255 7.99979 6.82822 7.63109C7.19389 7.26277 7.65657 7.24306 8.58117 7.20327C9.11693 7.18078 9.65312 7.16966 10.1894 7.16993C10.7502 7.16993 11.2902 7.18129 11.7976 7.20327C12.7222 7.24306 13.1845 7.26277 13.5505 7.63147C13.9162 7.99979 13.9321 8.44959 13.9635 9.34879C13.9835 9.91702 13.9835 10.4858 13.9635 11.054C13.9321 11.9532 13.9162 12.403 13.5505 12.7717C13.1848 13.14 12.7222 13.1597 11.7976 13.1995C11.5192 13.2114 11.2318 13.2202 10.9355 13.226C10.6551 13.2313 10.5145 13.2336 10.391 13.281C10.2674 13.3284 10.1636 13.4166 9.95594 13.5947L9.13024 14.3034C9.09006 14.3378 9.04083 14.36 8.98842 14.3673C8.936 14.3746 8.88259 14.3667 8.83453 14.3446C8.78646 14.3224 8.74575 14.2869 8.71723 14.2424C8.68871 14.1978 8.67358 14.146 8.67363 14.093V13.2033L8.58117 13.1995C7.65657 13.1597 7.19427 13.14 6.82822 12.7713C6.46255 12.403 6.44663 11.9532 6.41518 11.054C6.40513 10.7699 6.40008 10.4857 6.40002 10.2014Z" stroke="white" stroke-width="0.74" stroke-linecap="round" stroke-linejoin="round"/>
</svg>
