<svg width="18" height="17" viewBox="0 0 18 17" fill="none" xmlns="http://www.w3.org/2000/svg">
<path d="M19.7104 11.3957C20.4443 17.8468 23.3307 19.7972 23.3307 19.7972H0.593811C0.593811 19.7972 4.38328 17.2371 4.38328 8.27511C4.38328 6.23835 5.1816 4.2844 6.60265 2.84415C8.02371 1.40389 9.95381 0.59375 11.9622 0.59375C12.3892 0.59375 12.8102 0.629756 13.2254 0.701769M14.1475 23.3978C13.9254 23.7615 13.6067 24.0635 13.2231 24.2734C12.8396 24.4833 12.4048 24.5938 11.9622 24.5938C11.5196 24.5938 11.0848 24.4833 10.7013 24.2734C10.3178 24.0635 9.99905 23.7615 9.77697 23.3978M20.8043 7.79503C21.8094 7.79503 22.7732 7.41567 23.4839 6.74042C24.1946 6.06517 24.5938 5.14934 24.5938 4.19439C24.5938 3.23944 24.1946 2.3236 23.4839 1.64835C22.7732 0.973102 21.8094 0.59375 20.8043 0.59375C19.7993 0.59375 18.8354 0.973102 18.1248 1.64835C17.4141 2.3236 17.0149 3.23944 17.0149 4.19439C17.0149 5.14934 17.4141 6.06517 18.1248 6.74042C18.8354 7.41567 19.7993 7.79503 20.8043 7.79503Z" stroke="#088A82" stroke-width="1.1875" stroke-linecap="round" stroke-linejoin="round"/>
</svg>
