<svg width="35" height="35" viewBox="0 0 35 35" fill="none" xmlns="http://www.w3.org/2000/svg">
<circle cx="17.5" cy="17.5" r="17.0625" fill="white" stroke="#E2E2E2" stroke-width="0.875"/>
<path d="M17.5033 17.646H17.5088M20.2221 17.646H20.2283M14.7838 17.646H14.7899" stroke="#27A7A0" stroke-width="1.36111" stroke-linecap="round" stroke-linejoin="round"/>
<path d="M10.6943 17.6461C10.6943 17.1221 10.7032 16.6096 10.7216 16.1149C10.778 14.4999 10.8066 13.6921 11.4634 13.0299C12.1201 12.3684 12.9511 12.333 14.6116 12.2616C15.5738 12.2212 16.5368 12.2012 17.4999 12.2017C18.5071 12.2017 19.4769 12.2221 20.3882 12.2616C22.0487 12.333 22.879 12.3684 23.5364 13.0306C24.1932 13.6921 24.2217 14.4999 24.2782 16.1149C24.3141 17.1354 24.3141 18.1568 24.2782 19.1774C24.2217 20.7923 24.1932 21.6001 23.5364 22.2623C22.8797 22.9238 22.0487 22.9592 20.3882 23.0307C19.8882 23.052 19.3721 23.0679 18.8399 23.0783C18.3363 23.0878 18.0838 23.0919 17.8619 23.177C17.6401 23.2621 17.4536 23.4206 17.0807 23.7405L15.5977 25.0131C15.5256 25.075 15.4372 25.1148 15.343 25.1279C15.2489 25.141 15.153 25.1269 15.0666 25.0871C14.9803 25.0474 14.9072 24.9837 14.856 24.9036C14.8048 24.8235 14.7776 24.7305 14.7777 24.6354V23.0375L14.6116 23.0307C12.9511 22.9592 12.1208 22.9238 11.4634 22.2616C10.8066 21.6001 10.778 20.7923 10.7216 19.1774C10.7035 18.6671 10.6944 18.1566 10.6943 17.6461Z" stroke="#27A7A0" stroke-width="1.02083" stroke-linecap="round" stroke-linejoin="round"/>
<circle cx="23.9167" cy="12.2502" r="2.91667" fill="#CE0000"/>
</svg>
