<svg width="20" height="20" viewBox="0 0 20 20" fill="none" xmlns="http://www.w3.org/2000/svg">
<path d="M9.375 15C9.375 15.1658 9.44085 15.3247 9.55806 15.4419C9.67527 15.5592 9.83424 15.625 10 15.625C10.1658 15.625 10.3247 15.5592 10.4419 15.4419C10.5592 15.3247 10.625 15.1658 10.625 15V12.5C10.625 12.3342 10.5592 12.1753 10.4419 12.0581C10.3247 11.9408 10.1658 11.875 10 11.875C9.83424 11.875 9.67527 11.9408 9.55806 12.0581C9.44085 12.1753 9.375 12.3342 9.375 12.5V15Z" fill="white"/>
<path fill-rule="evenodd" clip-rule="evenodd" d="M9.99996 1.0415C9.40996 1.0415 8.87413 1.21067 8.29163 1.49317C7.72996 1.7665 7.07996 2.16984 6.26913 2.67317L4.54663 3.74234C3.77996 4.219 3.16413 4.60067 2.69079 4.96317C2.19996 5.33817 1.82329 5.7215 1.55079 6.219C1.27913 6.71484 1.15746 7.24317 1.09829 7.86734C1.04163 8.4715 1.04163 9.2115 1.04163 10.139V11.4832C1.04163 13.0698 1.04163 14.3223 1.16913 15.3015C1.29913 16.3057 1.57413 17.1165 2.19413 17.7573C2.81663 18.4015 3.60829 18.6898 4.58996 18.8257C5.53996 18.9582 6.75496 18.9582 8.28496 18.9582H11.715C13.245 18.9582 14.46 18.9582 15.41 18.8257C16.3908 18.6898 17.1833 18.4015 17.8066 17.7573C18.4258 17.1165 18.7008 16.3057 18.8316 15.3015C18.9583 14.3223 18.9583 13.0698 18.9583 11.4832V10.139C18.9583 9.2115 18.9583 8.47234 18.9016 7.86734C18.8433 7.24234 18.7208 6.71484 18.4491 6.219C18.1766 5.7215 17.7991 5.339 17.3091 4.96317C16.8358 4.59984 16.2208 4.219 15.4533 3.74234L13.7308 2.67317C12.92 2.16984 12.27 1.7665 11.7075 1.49317C11.1266 1.20984 10.5908 1.0415 9.99996 1.0415ZM6.89996 3.75317C7.74579 3.22817 8.34163 2.85984 8.83913 2.61734C9.32329 2.3815 9.66663 2.2915 9.99996 2.2915C10.3333 2.2915 10.6766 2.3815 11.1608 2.61734C11.6591 2.859 12.2541 3.22817 13.1 3.75317L14.7666 4.78734C15.5675 5.28484 16.13 5.634 16.55 5.95567C16.9575 6.26817 17.1916 6.52567 17.3525 6.819C17.5133 7.11317 17.6075 7.45734 17.6566 7.984C17.7075 8.524 17.7083 9.20484 17.7083 10.1698V11.4373C17.7083 13.079 17.7066 14.2507 17.5916 15.1398C17.4783 16.0132 17.2641 16.5198 16.9083 16.889C16.5541 17.2548 16.0725 17.4723 15.2383 17.5882C14.3833 17.7065 13.2558 17.7082 11.6666 17.7082H8.33329C6.74329 17.7082 5.61663 17.7065 4.76163 17.5882C3.92746 17.4715 3.44579 17.2548 3.09246 16.8882C2.73579 16.5198 2.52163 16.0132 2.40913 15.1398C2.29246 14.2507 2.29163 13.0798 2.29163 11.4373V10.1698C2.29163 9.20484 2.29163 8.524 2.34329 7.984C2.39246 7.45734 2.48663 7.11317 2.64746 6.819C2.80829 6.52567 3.04246 6.26817 3.45079 5.95567C3.86996 5.634 4.43246 5.28484 5.23329 4.78734L6.89996 3.75317Z" fill="white"/>
</svg>
