<svg width="24" height="24" viewBox="0 0 24 24" fill="none" xmlns="http://www.w3.org/2000/svg">
<path d="M21.3333 5.3335H2.66667C2.31305 5.3335 1.97391 5.47397 1.72386 5.72402C1.47381 5.97407 1.33334 6.31321 1.33334 6.66683V17.3335C1.33334 17.6871 1.47381 18.0263 1.72386 18.2763C1.97391 18.5264 2.31305 18.6668 2.66667 18.6668H21.3333C21.687 18.6668 22.0261 18.5264 22.2761 18.2763C22.5262 18.0263 22.6667 17.6871 22.6667 17.3335V6.66683C22.6667 6.31321 22.5262 5.97407 22.2761 5.72402C22.0261 5.47397 21.687 5.3335 21.3333 5.3335ZM21.3333 17.3335H2.66667V6.66683H21.3333V17.3335Z" fill="#088A82"/>
<path d="M4.66666 8.6665H6V9.99984H4.66666V8.6665Z" fill="#088A82"/>
<path d="M7.33334 8.6665H8.66667V9.99984H7.33334V8.6665Z" fill="#088A82"/>
<path d="M10 8.6665H11.3333V9.99984H10V8.6665Z" fill="#088A82"/>
<path d="M12.6667 8.6665H14V9.99984H12.6667V8.6665Z" fill="#088A82"/>
<path d="M15.3333 8.6665H16.6667V9.99984H15.3333V8.6665Z" fill="#088A82"/>
<path d="M18 8.6665H19.3333V9.99984H18V8.6665Z" fill="#088A82"/>
<path d="M4.66666 11.3335H6V12.6668H4.66666V11.3335Z" fill="#088A82"/>
<path d="M7.33334 11.3335H8.66667V12.6668H7.33334V11.3335Z" fill="#088A82"/>
<path d="M10 11.3335H11.3333V12.6668H10V11.3335Z" fill="#088A82"/>
<path d="M12.6667 11.3335H14V12.6668H12.6667V11.3335Z" fill="#088A82"/>
<path d="M15.3333 11.3335H16.6667V12.6668H15.3333V11.3335Z" fill="#088A82"/>
<path d="M18 11.3335H19.3333V12.6668H18V11.3335Z" fill="#088A82"/>
<path d="M18 14.6665H19.2933V15.9998H18V14.6665Z" fill="#088A82"/>
<path d="M4.66666 14.6665H6V15.9998H4.66666V14.6665Z" fill="#088A82"/>
<path d="M7.41998 14.6665H16.5866V15.9998H7.41998V14.6665Z" fill="#088A82"/>
</svg>
