<svg width="24" height="24" viewBox="0 0 24 24" fill="none" xmlns="http://www.w3.org/2000/svg">
<path opacity="0.5" d="M20 17C21.105 17 22 16.067 22 14.917C22 14.197 21.217 13.237 20.63 12.617C20.5495 12.5304 20.452 12.4613 20.3436 12.4141C20.2352 12.3668 20.1182 12.3424 20 12.3424C19.8818 12.3424 19.7648 12.3668 19.6564 12.4141C19.548 12.4613 19.4505 12.5304 19.37 12.617C18.783 13.237 18 14.197 18 14.917C18 16.067 18.895 17 20 17ZM16.278 10.568L17.783 7.97004L9.373 3.14404L2.65 14.746C2.33153 15.2961 2.12481 15.9036 2.04173 16.5337C1.95864 17.1638 2.00082 17.8042 2.16583 18.4179C2.33084 19.0317 2.61545 19.6069 3.00331 20.1104C3.39117 20.6139 3.87465 21.0359 4.426 21.352C5.54029 21.9941 6.86366 22.1684 8.10618 21.8366C9.34871 21.5048 10.4091 20.6941 11.055 19.582L12.175 17.65L16.278 10.568Z" fill="#93C8C5"/>
<path d="M9.29397 1.35424C9.12264 1.25306 8.91814 1.22409 8.72544 1.27369C8.53275 1.32329 8.36765 1.44741 8.26647 1.61874C8.16529 1.79007 8.13632 1.99458 8.18592 2.18727C8.23552 2.37996 8.35964 2.54506 8.53097 2.64624L9.36597 3.14024L9.37197 3.14324L17.782 7.97024L18.626 8.45424C18.7115 8.50681 18.8067 8.54169 18.9059 8.5568C19.0051 8.57192 19.1064 8.56696 19.2036 8.54223C19.3009 8.5175 19.3922 8.47349 19.4722 8.41282C19.5521 8.35215 19.6191 8.27605 19.6691 8.18902C19.7191 8.102 19.7511 8.00582 19.7633 7.90619C19.7755 7.80656 19.7675 7.7055 19.7399 7.60901C19.7123 7.51251 19.6656 7.42254 19.6025 7.34442C19.5395 7.26631 19.4614 7.20164 19.373 7.15424L10.126 1.84624L9.29397 1.35424ZM12.927 16.3522L12.925 16.3502L10.313 14.8472C10.1408 14.7515 9.93788 14.7274 9.74807 14.7801C9.55826 14.8328 9.39679 14.958 9.29855 15.1288C9.20031 15.2995 9.17319 15.502 9.22304 15.6926C9.27289 15.8832 9.39571 16.0465 9.56497 16.1472L12.175 17.6502L12.927 16.3522ZM14.565 13.5252L14.563 13.5242L10.36 11.1062C10.1878 11.0105 9.98488 10.9864 9.79507 11.0391C9.60526 11.0918 9.44379 11.217 9.34555 11.3878C9.24731 11.5585 9.22019 11.761 9.27004 11.9516C9.31989 12.1422 9.44271 12.3055 9.61197 12.4062L13.812 14.8232L14.565 13.5252ZM16.276 10.5672L13.718 9.09524C13.5458 8.99955 13.3429 8.97543 13.1531 9.02811C12.9633 9.08078 12.8018 9.20602 12.7036 9.37675C12.6053 9.54749 12.5782 9.75002 12.628 9.9406C12.6779 10.1312 12.8007 10.2945 12.97 10.3952L15.526 11.8652L16.276 10.5672Z" fill="#93C8C5"/>
</svg>
