<svg width="20" height="19" viewBox="0 0 20 19" fill="none" xmlns="http://www.w3.org/2000/svg">
<path d="M9.97805 8.07812H9.98563M13.7627 8.07812H13.7712M6.1925 8.07812H6.20103" stroke="#8F8F8F" stroke-linecap="round" stroke-linejoin="round"/>
<path d="M0.5 8.07868C0.5 7.34924 0.512315 6.63589 0.537893 5.94718C0.616522 3.69916 0.65631 2.57467 1.57049 1.65292C2.48467 0.732108 3.64136 0.682847 5.95286 0.583377C7.29228 0.527144 8.63274 0.499349 9.97334 0.500012C11.3754 0.500012 12.7253 0.528432 13.9938 0.583377C16.3053 0.682847 17.4611 0.732108 18.3762 1.65386C19.2904 2.57467 19.3302 3.69916 19.4088 5.94718C19.4588 7.36774 19.4588 8.78962 19.4088 10.2102C19.3302 12.4582 19.2904 13.5827 18.3762 14.5045C17.462 15.4253 16.3053 15.4745 13.9938 15.574C13.2979 15.6037 12.5795 15.6258 11.8386 15.6403C11.1376 15.6536 10.7862 15.6593 10.4773 15.7777C10.1685 15.8961 9.90892 16.1168 9.38978 16.5621L7.32554 18.3336C7.22508 18.4197 7.10203 18.4751 6.97099 18.4934C6.83995 18.5116 6.70642 18.4919 6.58625 18.4366C6.46608 18.3812 6.36431 18.2926 6.29301 18.1811C6.22171 18.0697 6.18388 17.9401 6.184 17.8078V15.5835L5.95286 15.574C3.64136 15.4745 2.48561 15.4253 1.57049 14.5035C0.65631 13.5827 0.616522 12.4582 0.537893 10.2102C0.512771 9.49996 0.500138 8.78935 0.5 8.07868Z" stroke="#8F8F8F" stroke-linecap="round" stroke-linejoin="round"/>
</svg>
