<svg width="37" height="37" viewBox="0 0 37 37" fill="none" xmlns="http://www.w3.org/2000/svg">
<circle cx="18.5" cy="18.5" r="18.2" fill="white" stroke="#D3D3D3" stroke-width="0.6"/>
<path d="M20.7723 16.6439L24.1911 13.2251M24.1911 13.2251V15.7892M24.1911 13.2251H21.627" stroke="#27A7A0" stroke-width="1.25" stroke-linecap="round" stroke-linejoin="round"/>
<path opacity="0.5" d="M21.3236 22.2362L21.7125 21.8259L20.7825 20.943L20.3937 21.3541L21.3236 22.2362ZM22.9936 21.6533L24.6261 22.5943L25.2663 21.4823L23.6329 20.5421L22.9936 21.6533ZM24.9415 24.5422L23.7278 25.8199L24.6569 26.7037L25.8705 25.4259L24.9415 24.5422ZM22.9971 26.2302C21.7706 26.3507 18.5698 26.2481 15.0963 22.5917L14.1673 23.4738C17.9527 27.4593 21.5637 27.661 23.1227 27.5063L22.9971 26.2302ZM15.0963 22.5917C11.7835 19.1037 11.228 16.1609 11.1587 14.8703L9.87842 14.9396C9.96389 16.5208 10.634 19.7541 14.1673 23.4738L15.0963 22.5917ZM16.2724 16.9182L16.5168 16.6601L15.5877 15.7772L15.3425 16.0353L16.2724 16.9182ZM16.71 13.4464L15.6322 11.9233L14.5852 12.6635L15.6621 14.1874L16.71 13.4464ZM11.9835 11.5934L10.6434 13.0071L11.5733 13.89L12.9151 12.4772L11.9835 11.5934ZM15.8074 16.4763C15.6536 16.3281 15.4983 16.1813 15.3416 16.0362L15.3399 16.0379L15.3373 16.0404L15.2946 16.09C15.2109 16.201 15.1446 16.324 15.098 16.455C15.0142 16.69 14.9698 17.0011 15.0262 17.3891C15.1373 18.1515 15.6373 19.1763 16.9424 20.5515L17.8723 19.6678C16.6518 18.3832 16.351 17.5926 16.2946 17.2028C16.2672 17.0148 16.2946 16.9165 16.3057 16.8849L16.3125 16.8686L16.2886 16.9003L16.2732 16.9174C16.2732 16.9174 16.2715 16.9174 15.8074 16.4763ZM16.9424 20.5515C18.2441 21.9225 19.227 22.4601 19.9766 22.5823C20.362 22.6447 20.674 22.5943 20.9099 22.5011C21.0407 22.4501 21.1623 22.3779 21.2697 22.2874L21.3005 22.2584L21.3125 22.2464L21.3184 22.2413L21.321 22.2387L21.3219 22.237C21.3219 22.237 21.3236 22.2362 20.8586 21.7943C20.3937 21.3533 20.3945 21.3524 20.3945 21.3516L20.3962 21.3507L20.3979 21.3481L20.4022 21.3439L20.4108 21.3353L20.4424 21.308C20.4509 21.3034 20.4498 21.3037 20.439 21.3088C20.4219 21.3157 20.3449 21.343 20.1826 21.3165C19.839 21.2601 19.0971 20.9575 17.8723 19.6678L16.9424 20.5515ZM15.6322 11.9233C14.7655 10.6977 13.0322 10.49 11.9844 11.5943L12.9126 12.4772C13.3596 12.0071 14.1476 12.0438 14.5852 12.6635L15.6322 11.9233ZM11.1587 14.8703C11.1399 14.5285 11.2895 14.1874 11.5733 13.89L10.6434 13.0071C10.1853 13.4891 9.83654 14.1584 9.87842 14.9396L11.1587 14.8703ZM23.727 25.8208C23.4885 26.0721 23.2398 26.2063 22.9971 26.2302L23.1227 27.5063C23.7611 27.4439 24.2782 27.1028 24.6569 26.7037L23.727 25.8208ZM16.5168 16.6609C17.3441 15.79 17.4023 14.4276 16.71 13.4473L15.663 14.1874C16.0236 14.6977 15.9681 15.3772 15.5877 15.7772L16.5168 16.6609ZM24.6261 22.5943C25.3278 22.9986 25.4654 23.9917 24.9415 24.543L25.8705 25.4259C26.9859 24.2516 26.6611 22.2857 25.2663 21.4823L24.6261 22.5943ZM21.7125 21.8268C22.0415 21.4798 22.5552 21.402 22.9936 21.6541L23.6329 20.543C22.6936 20.0028 21.5304 20.1584 20.7825 20.9447L21.7125 21.8268Z" fill="#27A7A0"/>
</svg>
