<svg width="24" height="24" viewBox="0 0 24 24" fill="none" xmlns="http://www.w3.org/2000/svg">
<g clip-path="url(#clip0_99_652)">
<path fill-rule="evenodd" clip-rule="evenodd" d="M8.25803 8.25805C6.43803 10.0781 5.01803 11.5646 3.91703 12.7616C2.82453 13.9496 2.27853 15.2841 2.25103 16.5531C2.22403 17.8106 2.70253 19.0856 3.80903 20.1916C4.91553 21.2976 6.18953 21.7766 7.44753 21.7491C8.71653 21.7216 10.0505 21.1761 11.2385 20.0836C12.4355 18.9826 13.922 17.5626 15.7425 15.7426L8.25803 8.25805ZM21.606 2.39455C20.137 0.926053 18.345 0.212053 16.5095 0.251553C14.6855 0.291553 12.8995 1.07255 11.408 2.44505C10.188 3.56705 8.68103 5.00655 6.84403 6.84405C5.00703 8.68155 3.56703 10.1876 2.44503 11.4081C1.07253 12.9001 0.291029 14.6851 0.251529 16.5096C0.211529 18.3446 0.926029 20.1371 2.39453 21.6061C3.86303 23.0751 5.65553 23.7886 7.49103 23.7486C9.31503 23.7091 11.1005 22.9281 12.5925 21.5556C13.8125 20.4331 15.319 18.9941 17.1565 17.1566C18.994 15.3191 20.433 13.8131 21.5555 12.5926C22.928 11.1006 23.709 9.31505 23.749 7.49105C23.7885 5.65555 23.074 3.86305 21.606 2.39455Z" fill="#93C8C5"/>
</g>
<defs>
<clipPath id="clip0_99_652">
<rect width="24" height="24" fill="white"/>
</clipPath>
</defs>
</svg>
